<svg width="201" height="330" viewBox="0 0 201 330" fill="none" xmlns="http://www.w3.org/2000/svg">
<g filter="url(#filter0_d_292_2)">
<mask id="path-1-inside-1_292_2" fill="white">
<path d="M-41.9996 321.954C-22.3074 321.96 -2.80684 318.01 15.3887 310.328C33.5843 302.647 50.1185 291.386 64.0474 277.187C77.9762 262.988 89.0269 246.13 96.5685 227.575C104.11 209.02 107.995 189.132 108.001 169.046L39.8492 169.025C39.8458 179.982 37.7266 190.832 33.6126 200.954C29.4985 211.076 23.4702 220.272 15.8719 228.018C8.27347 235.763 -0.746167 241.906 -10.6721 246.097C-20.598 250.287 -31.2359 252.442 -41.9782 252.438L-41.9996 321.954Z"/>
</mask>
<path d="M-41.9996 321.954L-182 321.911L-182.043 461.911L-42.0426 461.954L-41.9996 321.954ZM108.001 169.046L248.001 169.089L248.044 29.0889L108.044 29.0459L108.001 169.046ZM39.8492 169.025L39.8922 29.025L-100.108 28.982L-100.151 168.982L39.8492 169.025ZM-41.9782 252.438L-41.9352 112.438L-181.935 112.395L-181.978 252.395L-41.9782 252.438ZM-41.9996 321.954L-42.0426 461.954C-3.57606 461.966 34.4487 454.246 69.8357 439.307L15.3887 310.328L-39.0583 181.35C-40.0624 181.774 -41.0388 181.954 -41.9566 181.954L-41.9996 321.954ZM15.3887 310.328L69.8357 439.307C105.217 424.372 137.184 402.55 163.988 375.227L64.0474 277.187L-35.8931 179.147C-36.9474 180.222 -38.0479 180.923 -39.0583 181.35L15.3887 310.328ZM64.0474 277.187L163.988 375.227C190.786 347.91 211.902 315.627 226.265 280.29L96.5685 227.575L-33.128 174.861C-33.8486 176.634 -34.8331 178.066 -35.8931 179.147L64.0474 277.187ZM96.5685 227.575L226.265 280.29C240.626 244.958 247.989 207.179 248.001 169.089L108.001 169.046L-31.999 169.003C-31.9997 171.085 -32.4056 173.083 -33.128 174.861L96.5685 227.575ZM108.001 169.046L108.044 29.0459L39.8922 29.025L39.8492 169.025L39.8062 309.025L107.958 309.046L108.001 169.046ZM39.8492 169.025L-100.151 168.982C-100.149 161.935 -98.789 154.894 -96.0839 148.239L33.6126 200.954L163.309 253.668C174.242 226.769 179.84 198.03 179.849 169.068L39.8492 169.025ZM33.6126 200.954L-96.0839 148.239C-93.377 141.579 -89.3391 135.35 -84.0686 129.977L15.8719 228.018L115.812 326.058C136.28 305.194 152.374 280.572 163.309 253.668L33.6126 200.954ZM15.8719 228.018L-84.0686 129.977C-78.7924 124.599 -72.3784 120.182 -65.1191 117.118L-10.6721 246.097L43.7749 375.075C70.886 363.631 95.3394 346.928 115.812 326.058L15.8719 228.018ZM-10.6721 246.097L-65.1191 117.118C-57.8536 114.051 -49.9673 112.436 -41.9352 112.438L-41.9782 252.438L-42.0213 392.438C-12.5045 392.447 16.6575 386.523 43.7749 375.075L-10.6721 246.097ZM-41.9782 252.438L-181.978 252.395L-182 321.911L-41.9996 321.954L98.0004 321.997L98.0218 252.481L-41.9782 252.438Z" fill="#FFCF33" mask="url(#path-1-inside-1_292_2)"/>
</g>
<g filter="url(#filter1_d_292_2)">
<mask id="path-3-inside-2_292_2" fill="white">
<path d="M196.553 5.59174C176.875 4.8574 157.241 8.08379 138.774 15.0866C120.307 22.0895 103.367 32.7317 88.923 46.4057C74.4786 60.0796 62.812 76.5175 54.5893 94.7808C46.3667 113.044 41.749 132.775 41 152.847L109.104 155.389C109.513 144.439 112.032 133.676 116.518 123.713C121.003 113.75 127.367 104.783 135.247 97.3234C143.127 89.8641 152.367 84.0586 162.442 80.2384C172.516 76.4183 183.226 74.6582 193.961 75.0588L196.553 5.59174Z"/>
</mask>
<path d="M196.553 5.59174L336.456 10.8125L341.676 -129.09L201.774 -134.311L196.553 5.59174ZM41 152.847L-98.9026 147.627L-104.123 287.529L35.7793 292.75L41 152.847ZM109.104 155.389L103.884 295.291L243.786 300.512L249.007 160.61L109.104 155.389ZM193.961 75.0588L188.74 214.961L328.643 220.182L333.863 80.2796L193.961 75.0588ZM196.553 5.59174L201.774 -134.311C163.334 -135.745 125.05 -129.437 89.1344 -115.818L138.774 15.0866L188.414 145.991C189.433 145.604 190.415 145.46 191.332 145.494L196.553 5.59174ZM138.774 15.0866L89.1344 -115.818C53.2255 -102.201 20.4724 -81.5767 -7.32318 -55.2637L88.923 46.4057L185.169 148.075C186.263 147.04 187.388 146.38 188.414 145.991L138.774 15.0866ZM88.923 46.4057L-7.32318 -55.2637C-35.1128 -28.9565 -57.4091 2.52398 -73.0688 37.3056L54.5893 94.7808L182.247 152.256C183.033 150.511 184.07 149.116 185.169 148.075L88.923 46.4057ZM54.5893 94.7808L-73.0688 37.3056C-88.7264 72.0827 -97.4822 109.563 -98.9026 147.627L41 152.847L180.903 158.068C180.98 155.988 181.46 154.006 182.247 152.256L54.5893 94.7808ZM41 152.847L35.7793 292.75L103.884 295.291L109.104 155.389L114.325 15.4862L46.2207 12.9448L41 152.847ZM109.104 155.389L249.007 160.61C248.744 167.652 247.125 174.637 244.176 181.188L116.518 123.713L-11.1405 66.2375C-23.0611 92.7141 -29.7182 121.227 -30.7982 150.168L109.104 155.389ZM116.518 123.713L244.176 181.188C241.224 187.743 236.959 193.819 231.493 198.993L135.247 97.3234L39.0009 -4.346C17.776 15.7467 0.782 39.7564 -11.1405 66.2375L116.518 123.713ZM135.247 97.3234L231.493 198.993C226.022 204.172 219.449 208.349 212.081 211.143L162.442 80.2384L112.802 -50.6658C85.2861 -40.2316 60.2317 -24.4444 39.0009 -4.346L135.247 97.3234ZM162.442 80.2384L212.081 211.143C204.707 213.939 196.767 215.261 188.74 214.961L193.961 75.0588L199.182 -64.8438C169.685 -65.9445 140.324 -61.1023 112.802 -50.6658L162.442 80.2384ZM193.961 75.0588L333.863 80.2796L336.456 10.8125L196.553 5.59174L56.6505 0.37101L54.0582 69.8381L193.961 75.0588Z" fill="#FFCF33" mask="url(#path-3-inside-2_292_2)"/>
</g>
<defs>
<filter id="filter0_d_292_2" x="-46" y="169.025" width="158.001" height="160.929" filterUnits="userSpaceOnUse" color-interpolation-filters="sRGB">
<feFlood flood-opacity="0" result="BackgroundImageFix"/>
<feColorMatrix in="SourceAlpha" type="matrix" values="0 0 0 0 0 0 0 0 0 0 0 0 0 0 0 0 0 0 127 0" result="hardAlpha"/>
<feOffset dy="4"/>
<feGaussianBlur stdDeviation="2"/>
<feComposite in2="hardAlpha" operator="out"/>
<feColorMatrix type="matrix" values="0 0 0 0 0 0 0 0 0 0 0 0 0 0 0 0 0 0 0.25 0"/>
<feBlend mode="normal" in2="BackgroundImageFix" result="effect1_dropShadow_292_2"/>
<feBlend mode="normal" in="SourceGraphic" in2="effect1_dropShadow_292_2" result="shape"/>
</filter>
<filter id="filter1_d_292_2" x="37" y="5.4895" width="163.553" height="157.899" filterUnits="userSpaceOnUse" color-interpolation-filters="sRGB">
<feFlood flood-opacity="0" result="BackgroundImageFix"/>
<feColorMatrix in="SourceAlpha" type="matrix" values="0 0 0 0 0 0 0 0 0 0 0 0 0 0 0 0 0 0 127 0" result="hardAlpha"/>
<feOffset dy="4"/>
<feGaussianBlur stdDeviation="2"/>
<feComposite in2="hardAlpha" operator="out"/>
<feColorMatrix type="matrix" values="0 0 0 0 0 0 0 0 0 0 0 0 0 0 0 0 0 0 0.25 0"/>
<feBlend mode="normal" in2="BackgroundImageFix" result="effect1_dropShadow_292_2"/>
<feBlend mode="normal" in="SourceGraphic" in2="effect1_dropShadow_292_2" result="shape"/>
</filter>
</defs>
</svg>
