<svg width="439" height="162" viewBox="0 0 439 162" fill="none" xmlns="http://www.w3.org/2000/svg">
<g filter="url(#filter0_d_243_228)">
<mask id="path-1-inside-1_243_228" fill="white">
<path d="M312.391 153.66C312.444 133.998 309.492 114.514 303.703 96.3222C297.913 78.1301 289.4 61.5858 278.649 47.6338C267.898 33.6818 255.121 22.5953 241.045 15.0074C226.97 7.41943 211.872 3.4786 196.615 3.40991L196.431 71.4588C204.754 71.4962 212.99 73.646 220.668 77.7853C228.346 81.9247 235.317 87.9725 241.181 95.5835C247.046 103.195 251.69 112.22 254.848 122.144C258.007 132.068 259.617 142.696 259.588 153.422L312.391 153.66Z"/>
</mask>
<path d="M312.391 153.66L312.011 293.66L452.01 294.29L452.39 154.29L312.391 153.66ZM196.615 3.40991L196.995 -136.59L56.9962 -137.22L56.6167 2.77961L196.615 3.40991ZM196.431 71.4588L56.4322 70.8285L56.0527 210.828L196.051 211.458L196.431 71.4588ZM259.588 153.422L119.589 152.792L119.21 292.791L259.209 293.422L259.588 153.422ZM312.391 153.66L452.39 154.29C452.481 120.534 447.437 86.5599 437.102 54.0829L303.703 96.3222L170.303 138.561C171.547 142.468 172.407 147.461 172.392 153.03L312.391 153.66ZM303.703 96.3222L437.102 54.0829C426.777 21.6405 411.019 -9.75104 389.487 -37.6943L278.649 47.6338L167.811 132.962C167.781 132.923 169.049 134.62 170.303 138.561L303.703 96.3222ZM278.649 47.6338L389.487 -37.6943C367.932 -65.6681 340.424 -90.3472 307.307 -108.2L241.045 15.0074L174.783 138.215C169.817 135.538 167.865 133.032 167.811 132.962L278.649 47.6338ZM241.045 15.0074L307.307 -108.2C273.964 -126.175 236.348 -136.412 196.995 -136.59L196.615 3.40991L196.236 143.409C187.397 143.37 179.975 141.014 174.783 138.215L241.045 15.0074ZM196.615 3.40991L56.6167 2.77961L56.4322 70.8285L196.431 71.4588L336.429 72.0891L336.614 4.04022L196.615 3.40991ZM196.431 71.4588L196.051 211.458C180.279 211.387 165.995 207.241 154.406 200.993L220.668 77.7853L286.93 -45.4225C259.984 -59.9489 229.229 -68.3948 196.81 -68.5407L196.431 71.4588ZM220.668 77.7853L154.406 200.993C143.042 194.867 135.283 187.322 130.343 180.912L241.181 95.5835L352.02 10.2554C335.35 -11.3774 313.65 -31.0179 286.93 -45.4225L220.668 77.7853ZM241.181 95.5835L130.343 180.912C125.427 174.531 122.826 168.709 121.449 164.383L254.848 122.144L388.248 79.9044C380.554 55.7301 368.665 31.8577 352.02 10.2554L241.181 95.5835ZM254.848 122.144L121.449 164.383C120.061 160.022 119.58 156.16 119.589 152.792L259.588 153.422L399.587 154.053C399.654 129.232 395.952 104.113 388.248 79.9044L254.848 122.144ZM259.588 153.422L259.209 293.422L312.011 293.66L312.391 153.66L312.771 13.6605L259.968 13.4228L259.588 153.422Z" fill="#FFCF33" mask="url(#path-1-inside-1_243_228)"/>
</g>
<g filter="url(#filter1_d_243_228)">
<mask id="path-3-inside-2_243_228" fill="white">
<path d="M80.0686 1.3163C79.9864 20.9786 82.91 40.4692 88.6727 58.6753C94.4353 76.8814 102.924 93.4465 113.654 107.425C124.385 121.403 137.146 132.521 151.21 140.143C165.275 147.765 180.366 151.743 195.623 151.849L195.908 83.8008C187.585 83.743 179.352 81.5731 171.68 77.415C164.008 73.257 157.046 67.1921 151.193 59.5668C145.339 51.9414 140.708 42.9049 137.565 32.9732C134.421 23.0415 132.826 12.4091 132.871 1.6831L80.0686 1.3163Z"/>
</mask>
<path d="M80.0686 1.3163L80.6542 -138.682L-59.3425 -139.655L-59.928 0.343817L80.0686 1.3163ZM195.623 151.849L195.038 291.848L335.034 292.82L335.62 152.822L195.623 151.849ZM195.908 83.8008L335.904 84.7733L336.49 -55.2255L196.493 -56.1979L195.908 83.8008ZM132.871 1.6831L272.868 2.65558L273.453 -137.343L133.457 -138.316L132.871 1.6831ZM80.0686 1.3163L-59.928 0.343817C-60.0692 34.1002 -55.0755 68.0866 -44.7878 100.589L88.6727 58.6753L222.133 16.7617C220.896 12.8518 220.042 7.85695 220.065 2.28879L80.0686 1.3163ZM88.6727 58.6753L-44.7878 100.589C-34.511 133.057 -18.7989 164.487 2.69178 192.483L113.654 107.425L224.617 22.3669C224.647 22.4063 223.382 20.7062 222.133 16.7617L88.6727 58.6753ZM113.654 107.425L2.69178 192.483C24.2059 220.509 51.6771 245.255 84.7679 263.189L151.21 140.143L217.653 17.0968C222.615 19.7862 224.563 22.297 224.617 22.3669L113.654 107.425ZM151.21 140.143L84.7679 263.189C118.084 281.246 155.685 291.575 195.038 291.848L195.623 151.849L196.209 11.8503C205.047 11.9117 212.465 14.2851 217.653 17.0968L151.21 140.143ZM195.623 151.849L335.62 152.822L335.904 84.7733L195.908 83.8008L55.911 82.8284L55.6264 150.877L195.623 151.849ZM195.908 83.8008L196.493 -56.1979C212.265 -56.0884 226.542 -51.9072 238.122 -45.6313L171.68 77.415L105.237 200.461C132.162 215.053 162.904 223.574 195.322 223.8L195.908 83.8008ZM171.68 77.415L238.122 -45.6313C249.477 -39.4777 257.225 -31.914 262.155 -25.4911L151.193 59.5668L40.23 144.625C56.8674 166.298 78.5388 185.992 105.237 200.461L171.68 77.415ZM151.193 59.5668L262.155 -25.4911C267.062 -19.0988 269.655 -13.2703 271.025 -8.94038L137.565 32.9732L4.1043 74.8869C11.762 99.0801 23.6161 122.982 40.23 144.625L151.193 59.5668ZM137.565 32.9732L271.025 -8.94038C272.407 -4.57589 272.882 -0.712523 272.868 2.65558L132.871 1.6831L-7.12555 0.710609C-7.22936 25.5308 -3.56436 50.659 4.1043 74.8869L137.565 32.9732ZM132.871 1.6831L133.457 -138.316L80.6542 -138.682L80.0686 1.3163L79.4831 141.315L132.286 141.682L132.871 1.6831Z" fill="#FFCF33" mask="url(#path-3-inside-2_243_228)"/>
</g>
<g filter="url(#filter2_d_243_228)">
<mask id="path-5-inside-3_243_228" fill="white">
<path d="M317.037 153.647C332.293 153.921 347.441 150.32 361.617 143.049C375.793 135.778 388.719 124.981 399.657 111.272C410.594 97.5638 419.33 81.2132 425.365 63.154C431.399 45.0948 434.615 25.6807 434.827 6.02002L382.029 5.07167C381.913 15.7968 380.159 26.3875 376.867 36.2391C373.575 46.0906 368.81 55.0101 362.843 62.4882C356.876 69.9663 349.825 75.8567 342.092 79.8229C334.359 83.7891 326.095 85.7536 317.773 85.6041L317.037 153.647Z"/>
</mask>
<path d="M317.037 153.647L177.059 151.132L175.545 291.124L315.523 293.639L317.037 153.647ZM434.827 6.02002L574.805 8.53429L576.319 -131.458L436.341 -133.972L434.827 6.02002ZM382.029 5.07167L383.543 -134.92L243.566 -137.434L242.052 2.5574L382.029 5.07167ZM317.773 85.6041L319.287 -54.3877L179.309 -56.902L177.795 83.0898L317.773 85.6041ZM317.037 153.647L315.523 293.639C354.868 294.345 392.614 284.956 426.194 267.733L361.617 143.049L297.04 18.3646C302.268 15.6835 309.717 13.4963 318.551 13.655L317.037 153.647ZM361.617 143.049L426.194 267.733C459.545 250.628 487.382 226.571 509.313 199.085L399.657 111.272L290 23.4593C290.055 23.3903 292.04 20.9291 297.04 18.3646L361.617 143.049ZM399.657 111.272L509.313 199.085C531.22 171.629 547.401 140.596 558.163 108.388L425.365 63.154L292.566 17.9197C291.259 21.8309 289.969 23.4983 290 23.4593L399.657 111.272ZM425.365 63.154L558.163 108.388C568.937 76.1469 574.44 42.2896 574.805 8.53429L434.827 6.02002L294.85 3.50575C294.79 9.07172 293.861 14.0427 292.566 17.9197L425.365 63.154ZM434.827 6.02002L436.341 -133.972L383.543 -134.92L382.029 5.07167L380.515 145.063L433.313 146.012L434.827 6.02002ZM382.029 5.07167L242.052 2.5574C242.088 -0.812145 242.621 -4.66462 244.068 -8.99531L376.867 36.2391L509.666 81.4734C517.697 57.4396 521.738 32.4058 522.006 7.58593L382.029 5.07167ZM376.867 36.2391L244.068 -8.99531C245.504 -13.2917 248.184 -19.0554 253.186 -25.3247L362.843 62.4882L472.5 150.301C489.435 129.076 501.646 105.473 509.666 81.4734L376.867 36.2391ZM362.843 62.4882L253.186 -25.3247C258.213 -31.624 266.072 -38.9927 277.515 -44.8616L342.092 79.8229L406.668 204.507C433.578 190.706 455.54 171.557 472.5 150.301L362.843 62.4882ZM342.092 79.8229L277.515 -44.8616C289.185 -50.847 303.519 -54.6709 319.287 -54.3877L317.773 85.6041L316.259 225.596C348.671 226.178 379.532 218.425 406.668 204.507L342.092 79.8229ZM317.773 85.6041L177.795 83.0898L177.059 151.132L317.037 153.647L457.014 156.161L457.75 88.1184L317.773 85.6041Z" fill="#FFCF33" mask="url(#path-5-inside-3_243_228)"/>
</g>
<g filter="url(#filter3_d_243_228)">
<mask id="path-7-inside-4_243_228" fill="white">
<path d="M75.2202 1.35607C59.9636 1.17799 44.8293 4.87433 30.6816 12.234C16.5339 19.5937 3.6498 30.4727 -7.2351 44.2497C-18.12 58.0268 -26.7925 74.4321 -32.7575 92.529C-38.7225 110.626 -41.8631 130.06 -42 149.722L10.8011 150.338C10.8758 139.612 12.589 129.011 15.843 119.139C19.097 109.267 23.828 100.317 29.7658 92.8017C35.7037 85.2861 42.7322 79.3515 50.4499 75.3367C58.1677 71.3219 66.4236 69.3054 74.7464 69.4026L75.2202 1.35607Z"/>
</mask>
<path d="M75.2202 1.35607L215.211 2.99009L216.186 -137.007L76.1952 -138.641L75.2202 1.35607ZM-42 149.722L-181.99 148.088L-182.965 288.085L-42.9749 289.719L-42 149.722ZM10.8011 150.338L9.82617 290.335L149.817 291.969L150.792 151.972L10.8011 150.338ZM74.7464 69.4026L73.7714 209.399L213.762 211.033L214.737 71.0366L74.7464 69.4026ZM75.2202 1.35607L76.1952 -138.641C36.8452 -139.1 -0.866235 -129.472 -34.3798 -112.039L30.6816 12.234L95.7431 136.507C90.5249 139.221 83.082 141.456 74.2453 141.353L75.2202 1.35607ZM30.6816 12.234L-34.3798 -112.039C-67.6665 -94.7227 -95.4106 -70.4907 -117.235 -42.8675L-7.2351 44.2497L102.765 131.367C102.71 131.436 100.734 133.91 95.7431 136.507L30.6816 12.234ZM-7.2351 44.2497L-117.235 -42.8675C-139.035 -15.2746 -155.096 15.86 -165.734 48.1335L-32.7575 92.529L100.219 136.925C101.511 133.004 102.795 131.328 102.765 131.367L-7.2351 44.2497ZM-32.7575 92.529L-165.734 48.1335C-176.383 80.4415 -181.755 114.332 -181.99 148.088L-42 149.722L97.9905 151.356C98.0292 145.788 98.9383 140.811 100.219 136.925L-32.7575 92.529ZM-42 149.722L-42.9749 289.719L9.82617 290.335L10.8011 150.338L11.776 10.3416L-41.0251 9.72531L-42 149.722ZM10.8011 150.338L150.792 151.972C150.768 155.341 150.25 159.195 148.82 163.534L15.843 119.139L-117.134 74.7432C-125.072 98.8263 -129.017 123.884 -129.189 148.704L10.8011 150.338ZM15.843 119.139L148.82 163.534C147.401 167.839 144.743 173.619 139.766 179.919L29.7658 92.8017L-80.234 5.68441C-97.0876 27.016 -109.207 50.6946 -117.134 74.7432L15.843 119.139ZM29.7658 92.8017L139.766 179.919C134.764 186.249 126.933 193.668 115.511 199.609L50.4499 75.3367L-14.6115 -48.9359C-41.4682 -34.9649 -63.3567 -15.6773 -80.234 5.68441L29.7658 92.8017ZM50.4499 75.3367L115.511 199.609C103.863 205.669 89.5421 209.583 73.7714 209.399L74.7464 69.4026L75.7213 -70.594C43.3052 -70.9724 12.4721 -63.0249 -14.6115 -48.9359L50.4499 75.3367ZM74.7464 69.4026L214.737 71.0366L215.211 2.99009L75.2202 1.35607L-64.7702 -0.277946L-65.2441 67.7686L74.7464 69.4026Z" fill="#FFCF33" mask="url(#path-7-inside-4_243_228)"/>
</g>
<defs>
<filter id="filter0_d_243_228" x="192.431" y="3.40991" width="123.961" height="158.25" filterUnits="userSpaceOnUse" color-interpolation-filters="sRGB">
<feFlood flood-opacity="0" result="BackgroundImageFix"/>
<feColorMatrix in="SourceAlpha" type="matrix" values="0 0 0 0 0 0 0 0 0 0 0 0 0 0 0 0 0 0 127 0" result="hardAlpha"/>
<feOffset dy="4"/>
<feGaussianBlur stdDeviation="2"/>
<feComposite in2="hardAlpha" operator="out"/>
<feColorMatrix type="matrix" values="0 0 0 0 0 0 0 0 0 0 0 0 0 0 0 0 0 0 0.25 0"/>
<feBlend mode="normal" in2="BackgroundImageFix" result="effect1_dropShadow_243_228"/>
<feBlend mode="normal" in="SourceGraphic" in2="effect1_dropShadow_243_228" result="shape"/>
</filter>
<filter id="filter1_d_243_228" x="76.0674" y="1.31641" width="123.84" height="158.533" filterUnits="userSpaceOnUse" color-interpolation-filters="sRGB">
<feFlood flood-opacity="0" result="BackgroundImageFix"/>
<feColorMatrix in="SourceAlpha" type="matrix" values="0 0 0 0 0 0 0 0 0 0 0 0 0 0 0 0 0 0 127 0" result="hardAlpha"/>
<feOffset dy="4"/>
<feGaussianBlur stdDeviation="2"/>
<feComposite in2="hardAlpha" operator="out"/>
<feColorMatrix type="matrix" values="0 0 0 0 0 0 0 0 0 0 0 0 0 0 0 0 0 0 0.25 0"/>
<feBlend mode="normal" in2="BackgroundImageFix" result="effect1_dropShadow_243_228"/>
<feBlend mode="normal" in="SourceGraphic" in2="effect1_dropShadow_243_228" result="shape"/>
</filter>
<filter id="filter2_d_243_228" x="313.037" y="5.07178" width="125.79" height="156.59" filterUnits="userSpaceOnUse" color-interpolation-filters="sRGB">
<feFlood flood-opacity="0" result="BackgroundImageFix"/>
<feColorMatrix in="SourceAlpha" type="matrix" values="0 0 0 0 0 0 0 0 0 0 0 0 0 0 0 0 0 0 127 0" result="hardAlpha"/>
<feOffset dy="4"/>
<feGaussianBlur stdDeviation="2"/>
<feComposite in2="hardAlpha" operator="out"/>
<feColorMatrix type="matrix" values="0 0 0 0 0 0 0 0 0 0 0 0 0 0 0 0 0 0 0.25 0"/>
<feBlend mode="normal" in2="BackgroundImageFix" result="effect1_dropShadow_243_228"/>
<feBlend mode="normal" in="SourceGraphic" in2="effect1_dropShadow_243_228" result="shape"/>
</filter>
<filter id="filter3_d_243_228" x="-46" y="1.34985" width="125.221" height="156.988" filterUnits="userSpaceOnUse" color-interpolation-filters="sRGB">
<feFlood flood-opacity="0" result="BackgroundImageFix"/>
<feColorMatrix in="SourceAlpha" type="matrix" values="0 0 0 0 0 0 0 0 0 0 0 0 0 0 0 0 0 0 127 0" result="hardAlpha"/>
<feOffset dy="4"/>
<feGaussianBlur stdDeviation="2"/>
<feComposite in2="hardAlpha" operator="out"/>
<feColorMatrix type="matrix" values="0 0 0 0 0 0 0 0 0 0 0 0 0 0 0 0 0 0 0.25 0"/>
<feBlend mode="normal" in2="BackgroundImageFix" result="effect1_dropShadow_243_228"/>
<feBlend mode="normal" in="SourceGraphic" in2="effect1_dropShadow_243_228" result="shape"/>
</filter>
</defs>
</svg>
