<svg width="145" height="81" viewBox="0 0 145 81" fill="none" xmlns="http://www.w3.org/2000/svg">
<path d="M8.86593 24.18C7.69259 24.18 6.79259 23.9467 6.16593 23.48C5.53926 23.0133 5.11259 22.36 4.88593 21.52C4.65926 20.6667 4.54593 19.6733 4.54593 18.54V7.8H6.70593V18.64C6.70593 19.3333 6.75259 19.9667 6.84593 20.54C6.93926 21.1133 7.13926 21.5667 7.44593 21.9C7.76593 22.2333 8.23926 22.4 8.86593 22.4C9.50593 22.4 9.97926 22.2333 10.2859 21.9C10.5926 21.5667 10.7926 21.1133 10.8859 20.54C10.9793 19.9667 11.0259 19.3333 11.0259 18.64V7.8H13.1659V18.54C13.1659 19.6733 13.0526 20.6667 12.8259 21.52C12.5993 22.36 12.1726 23.0133 11.5459 23.48C10.9326 23.9467 10.0393 24.18 8.86593 24.18ZM15.5453 24V7.8H17.0853L21.6853 18.56V7.8H23.5653V24H22.1253L17.4653 12.94V24H15.5453ZM26.2317 24V7.8H28.4517V24H26.2317Z" fill="white"/>
<path d="M9.91037 56.396C8.15837 56.396 6.69437 56.06 5.51837 55.388C4.34237 54.692 3.45437 53.684 2.85437 52.364C2.25437 51.044 1.91837 49.424 1.84637 47.504L6.41837 46.604C6.46637 47.732 6.59837 48.728 6.81437 49.592C7.05437 50.456 7.40237 51.128 7.85837 51.608C8.33837 52.064 8.96237 52.292 9.73037 52.292C10.5944 52.292 11.2064 52.04 11.5664 51.536C11.9264 51.008 12.1064 50.348 12.1064 49.556C12.1064 48.284 11.8184 47.24 11.2424 46.424C10.6664 45.608 9.89837 44.792 8.93837 43.976L5.26637 40.736C4.23437 39.848 3.40637 38.864 2.78237 37.784C2.18237 36.68 1.88237 35.324 1.88237 33.716C1.88237 31.412 2.55437 29.636 3.89837 28.388C5.24237 27.14 7.07837 26.516 9.40637 26.516C10.7744 26.516 11.9144 26.732 12.8264 27.164C13.7384 27.572 14.4584 28.148 14.9864 28.892C15.5384 29.636 15.9464 30.488 16.2104 31.448C16.4744 32.384 16.6424 33.38 16.7144 34.436L12.1784 35.228C12.1304 34.316 12.0224 33.5 11.8544 32.78C11.7104 32.06 11.4344 31.496 11.0264 31.088C10.6424 30.68 10.0664 30.476 9.29837 30.476C8.50637 30.476 7.89437 30.74 7.46237 31.268C7.05437 31.772 6.85037 32.408 6.85037 33.176C6.85037 34.16 7.05437 34.976 7.46237 35.624C7.87037 36.248 8.45837 36.896 9.22637 37.568L12.8624 40.772C14.0624 41.78 15.0824 42.968 15.9224 44.336C16.7864 45.68 17.2184 47.312 17.2184 49.232C17.2184 50.624 16.9064 51.86 16.2824 52.94C15.6824 54.02 14.8304 54.872 13.7264 55.496C12.6464 56.096 11.3744 56.396 9.91037 56.396ZM28.3474 56.396C26.1874 56.396 24.5074 56 23.3074 55.208C22.1074 54.416 21.2794 53.288 20.8234 51.824C20.3674 50.36 20.1394 48.608 20.1394 46.568V26.84H25.3234V47.18C25.3234 48.092 25.3834 48.956 25.5034 49.772C25.6234 50.564 25.8994 51.212 26.3314 51.716C26.7874 52.196 27.4594 52.436 28.3474 52.436C29.2834 52.436 29.9554 52.196 30.3634 51.716C30.7954 51.212 31.0714 50.564 31.1914 49.772C31.3354 48.956 31.4074 48.092 31.4074 47.18V26.84H36.5554V46.568C36.5554 48.608 36.3274 50.36 35.8714 51.824C35.4154 53.288 34.5874 54.416 33.3874 55.208C32.2114 56 30.5314 56.396 28.3474 56.396ZM40.6741 56L41.1781 26.84H46.6861L50.8261 47.036L55.1461 26.84H60.4741L61.0141 56H57.0541L56.6221 35.732L52.4821 56H49.2781L45.0661 35.66L44.6701 56H40.6741ZM65.2483 56L65.7523 26.84H71.2603L75.4003 47.036L79.7203 26.84H85.0483L85.5883 56H81.6283L81.1963 35.732L77.0563 56H73.8523L69.6403 35.66L69.2443 56H65.2483ZM90.0385 56V26.84H95.2945V56H90.0385ZM102.725 56V30.764H98.0806V26.84H112.625V30.764H108.053V56H102.725Z" fill="white"/>
<path d="M78.4928 69L78.7568 60.09H79.3508L81.2318 68.131L83.1458 60.09H83.7618L84.0148 69H83.4978L83.2778 61.531L81.4628 69H81.0228L79.2298 61.542L79.0098 69H78.4928ZM86.95 69L88.82 60.09H89.513L91.394 69H90.789L90.327 66.536H88.017L87.544 69H86.95ZM88.105 66.096H90.25L89.172 60.816L88.105 66.096ZM94.4385 69V60.09H96.3855C96.9795 60.09 97.4415 60.2037 97.7715 60.431C98.1015 60.6583 98.3325 60.9663 98.4645 61.355C98.5965 61.7437 98.6625 62.1763 98.6625 62.653V66.349C98.6625 66.855 98.5965 67.3097 98.4645 67.713C98.3325 68.109 98.1051 68.4243 97.7825 68.659C97.4671 68.8863 97.0198 69 96.4405 69H94.4385ZM95.0325 68.527H96.4075C96.8915 68.527 97.2508 68.4243 97.4855 68.219C97.7201 68.0137 97.8741 67.7423 97.9475 67.405C98.0208 67.0603 98.0575 66.6863 98.0575 66.283V62.697C98.0575 62.2643 98.0135 61.8903 97.9255 61.575C97.8375 61.2523 97.6725 61.0067 97.4305 60.838C97.1885 60.662 96.8401 60.574 96.3855 60.574H95.0325V68.527ZM101.991 69V60.09H104.147C104.675 60.09 105.078 60.189 105.357 60.387C105.643 60.5777 105.837 60.8417 105.94 61.179C106.05 61.509 106.105 61.8793 106.105 62.29C106.105 62.62 106.068 62.9353 105.995 63.236C105.929 63.5367 105.801 63.7933 105.61 64.006C105.427 64.2113 105.155 64.3433 104.796 64.402L106.226 69H105.632L104.246 64.512H102.585V69H101.991ZM102.585 64.05H104.125C104.506 64.05 104.796 63.9803 104.994 63.841C105.192 63.6943 105.328 63.489 105.401 63.225C105.482 62.961 105.522 62.6493 105.522 62.29C105.522 61.7253 105.427 61.2963 105.236 61.003C105.053 60.7097 104.679 60.563 104.114 60.563H102.585V64.05ZM109.458 69V60.09H110.052V69H109.458ZM113.584 69V60.09H115.531C116.125 60.09 116.587 60.2037 116.917 60.431C117.247 60.6583 117.478 60.9663 117.61 61.355C117.742 61.7437 117.808 62.1763 117.808 62.653V66.349C117.808 66.855 117.742 67.3097 117.61 67.713C117.478 68.109 117.25 68.4243 116.928 68.659C116.612 68.8863 116.165 69 115.586 69H113.584ZM114.178 68.527H115.553C116.037 68.527 116.396 68.4243 116.631 68.219C116.865 68.0137 117.019 67.7423 117.093 67.405C117.166 67.0603 117.203 66.6863 117.203 66.283V62.697C117.203 62.2643 117.159 61.8903 117.071 61.575C116.983 61.2523 116.818 61.0067 116.576 60.838C116.334 60.662 115.985 60.574 115.531 60.574H114.178V68.527Z" fill="white"/>
</svg>
