<svg width="127" height="150" viewBox="0 0 127 150" fill="none" xmlns="http://www.w3.org/2000/svg">
<g filter="url(#filter0_d_243_237)">
<mask id="path-1-inside-1_243_237" fill="white">
<path d="M172.327 134.068C170.19 114.492 164.14 95.537 154.524 78.2857C144.908 61.0343 131.914 45.8242 116.283 33.5237C100.653 21.2232 82.6917 12.0732 63.4261 6.59625C44.1605 1.11925 23.9675 -0.577532 4 1.60278L11.3977 69.3519C22.2903 68.1625 33.3059 69.0881 43.8155 72.0759C54.3251 75.0637 64.1231 80.0551 72.6498 86.7652C81.1765 93.4753 88.2651 101.773 93.5108 111.183C98.7565 120.594 102.057 130.934 103.223 141.613L172.327 134.068Z"/>
</mask>
<path d="M172.327 134.068L187.524 273.24L326.697 258.044L311.5 118.871L172.327 134.068ZM4 1.60278L-11.1967 -137.57L-150.369 -122.373L-135.173 16.7995L4 1.60278ZM11.3977 69.3519L-127.775 84.5486L-112.578 223.721L26.5944 208.525L11.3977 69.3519ZM103.223 141.613L-35.9501 156.81L-20.7535 295.983L118.419 280.786L103.223 141.613ZM172.327 134.068L311.5 118.871C307.325 80.6316 295.511 43.6731 276.81 10.1224L154.524 78.2857L32.2386 146.449C32.7692 147.401 33.0549 148.352 33.1545 149.264L172.327 134.068ZM154.524 78.2857L276.81 10.1224C258.112 -23.4223 232.94 -52.825 202.862 -76.4949L116.283 33.5237L29.7043 143.542C30.8874 144.473 31.7046 145.491 32.2386 146.449L154.524 78.2857ZM116.283 33.5237L202.862 -76.4949C172.79 -100.16 138.4 -117.637 101.71 -128.068L63.4261 6.59625L25.1426 141.26C26.9834 141.783 28.5148 142.606 29.7043 143.542L116.283 33.5237ZM63.4261 6.59625L101.71 -128.068C65.024 -138.497 26.6688 -141.705 -11.1967 -137.57L4 1.60278L19.1967 140.776C21.2662 140.55 23.2971 140.736 25.1426 141.26L63.4261 6.59625ZM4 1.60278L-135.173 16.7995L-127.775 84.5486L11.3977 69.3519L150.571 54.1552L143.173 -13.5939L4 1.60278ZM11.3977 69.3519L26.5944 208.525C19.589 209.29 12.4424 208.704 5.53198 206.74L43.8155 72.0759L82.099 -62.588C54.1693 -70.5281 24.9916 -72.9646 -3.79897 -69.8209L11.3977 69.3519ZM43.8155 72.0759L5.53198 206.74C-1.38312 204.774 -8.01468 201.438 -13.9291 196.784L72.6498 86.7652L159.229 -23.2534C136.261 -41.3279 110.033 -54.6466 82.099 -62.588L43.8155 72.0759ZM72.6498 86.7652L-13.9291 196.784C-19.85 192.124 -24.9385 186.229 -28.7749 179.347L93.5108 111.183L215.796 43.0202C201.469 17.316 182.203 -5.17383 159.229 -23.2534L72.6498 86.7652ZM93.5108 111.183L-28.7749 179.347C-32.6146 172.458 -35.0783 164.795 -35.9501 156.81L103.223 141.613L242.395 126.417C239.191 97.0742 230.128 68.7304 215.796 43.0202L93.5108 111.183ZM103.223 141.613L118.419 280.786L187.524 273.24L172.327 134.068L157.131 -5.10525L88.026 2.44049L103.223 141.613Z" fill="#45BAED" mask="url(#path-1-inside-1_243_237)"/>
</g>
<defs>
<filter id="filter0_d_243_237" x="0" y="0.681152" width="176.327" height="148.932" filterUnits="userSpaceOnUse" color-interpolation-filters="sRGB">
<feFlood flood-opacity="0" result="BackgroundImageFix"/>
<feColorMatrix in="SourceAlpha" type="matrix" values="0 0 0 0 0 0 0 0 0 0 0 0 0 0 0 0 0 0 127 0" result="hardAlpha"/>
<feOffset dy="4"/>
<feGaussianBlur stdDeviation="2"/>
<feComposite in2="hardAlpha" operator="out"/>
<feColorMatrix type="matrix" values="0 0 0 0 0 0 0 0 0 0 0 0 0 0 0 0 0 0 0.25 0"/>
<feBlend mode="normal" in2="BackgroundImageFix" result="effect1_dropShadow_243_237"/>
<feBlend mode="normal" in="SourceGraphic" in2="effect1_dropShadow_243_237" result="shape"/>
</filter>
</defs>
</svg>
