<svg width="242" height="343" viewBox="0 0 242 343" fill="none" xmlns="http://www.w3.org/2000/svg">
<g filter="url(#filter0_d_292_3)">
<mask id="path-1-inside-1_292_3" fill="white">
<path d="M155.922 153.075C156.328 133.387 152.774 113.81 145.464 95.4626C138.154 77.1147 127.231 60.3552 113.318 46.1409C99.4051 31.9265 82.7749 20.5357 64.377 12.6189C45.9791 4.70201 26.1737 0.414112 6.0918 0L4.68673 68.1373C15.6417 68.3632 26.4458 70.7023 36.4821 75.0211C46.5184 79.3399 55.5904 85.5537 63.1802 93.3078C70.7699 101.062 76.7287 110.204 80.7164 120.213C84.704 130.222 86.6425 140.902 86.421 151.642L155.922 153.075Z"/>
</mask>
<path d="M155.922 153.075L153.035 293.045L293.006 295.932L295.892 155.962L155.922 153.075ZM6.0918 0L8.97814 -139.97L-130.992 -142.857L-133.878 -2.88635L6.0918 0ZM4.68673 68.1373L-135.284 65.251L-138.17 205.221L1.80038 208.108L4.68673 68.1373ZM86.421 151.642L-53.5492 148.756L-56.4356 288.726L83.5346 291.612L86.421 151.642ZM155.922 153.075L295.892 155.962C296.685 117.503 289.739 79.3294 275.522 43.6463L145.464 95.4626L15.4063 147.279C15.8097 148.291 15.9703 149.271 15.9514 150.189L155.922 153.075ZM145.464 95.4626L275.522 43.6463C261.308 7.96946 240.141 -24.435 213.368 -51.7879L113.318 46.1409L13.2683 144.07C14.3213 145.145 15.0004 146.26 15.4063 147.279L145.464 95.4626ZM113.318 46.1409L213.368 -51.7879C186.601 -79.1348 154.753 -100.903 119.715 -115.98L64.377 12.6189L9.03913 141.218C10.797 141.974 12.2094 142.988 13.2683 144.07L113.318 46.1409ZM64.377 12.6189L119.715 -115.98C84.6814 -131.056 47.0606 -139.185 8.97814 -139.97L6.0918 0L3.20545 139.97C5.28684 140.013 7.27673 140.46 9.03913 141.218L64.377 12.6189ZM6.0918 0L-133.878 -2.88635L-135.284 65.251L4.68673 68.1373L144.657 71.0237L146.062 2.88635L6.0918 0ZM4.68673 68.1373L1.80038 208.108C-5.24522 207.962 -12.2566 206.46 -18.8558 203.62L36.4821 75.0211L91.8199 -53.578C65.1481 -65.0552 36.5286 -71.2358 7.57307 -71.8329L4.68673 68.1373ZM36.4821 75.0211L-18.8558 203.62C-25.4594 200.779 -31.6052 196.615 -36.8697 191.237L63.1802 93.3078L163.23 -4.6209C142.786 -25.5076 118.496 -42.0988 91.8199 -53.578L36.4821 75.0211ZM63.1802 93.3078L-36.8697 191.237C-42.1399 185.852 -46.4253 179.35 -49.3416 172.03L80.7164 120.213L210.774 68.3972C199.883 41.0593 183.68 16.2717 163.23 -4.6209L63.1802 93.3078ZM80.7164 120.213L-49.3416 172.03C-52.2605 164.703 -53.7148 156.786 -53.5492 148.756L86.421 151.642L226.391 154.528C227 125.018 221.669 95.7415 210.774 68.3972L80.7164 120.213ZM86.421 151.642L83.5346 291.612L153.035 293.045L155.922 153.075L158.808 13.1049L89.3074 11.6717L86.421 151.642Z" fill="#45BAED" mask="url(#path-1-inside-1_292_3)"/>
</g>
<g filter="url(#filter1_d_292_3)">
<mask id="path-3-inside-2_292_3" fill="white">
<path d="M80.9997 188.536C81.4549 208.222 85.8608 227.625 93.9659 245.636C102.071 263.646 113.717 279.912 128.238 293.505C142.759 307.097 159.871 317.75 178.598 324.855C197.324 331.96 217.298 335.378 237.379 334.914L235.804 266.78C224.849 267.033 213.953 265.169 203.738 261.293C193.522 257.417 184.187 251.606 176.266 244.191C168.344 236.776 161.991 227.903 157.57 218.078C153.148 208.253 150.745 197.668 150.497 186.929L80.9997 188.536Z"/>
</mask>
<path d="M80.9997 188.536L77.7636 48.5729L-62.1989 51.809L-58.9629 191.772L80.9997 188.536ZM237.379 334.914L240.615 474.876L380.578 471.64L377.342 331.678L237.379 334.914ZM235.804 266.78L375.766 263.544L372.53 123.581L232.568 126.817L235.804 266.78ZM150.497 186.929L290.459 183.693L287.223 43.7301L147.261 46.9661L150.497 186.929ZM80.9997 188.536L-58.9629 191.772C-58.0738 230.228 -49.4652 268.061 -33.7022 303.089L93.9659 245.636L221.634 188.183C221.187 187.189 220.984 186.217 220.962 185.299L80.9997 188.536ZM93.9659 245.636L-33.7022 303.089C-17.942 338.11 4.62199 369.558 32.5652 395.714L128.238 293.505L223.91 191.296C222.811 190.267 222.084 189.183 221.634 188.183L93.9659 245.636ZM128.238 293.505L32.5652 395.714C60.5024 421.865 93.2716 442.22 128.935 455.751L178.598 324.855L228.26 193.96C226.471 193.281 225.016 192.33 223.91 191.296L128.238 293.505ZM178.598 324.855L128.935 455.751C164.594 469.28 202.535 475.757 240.615 474.876L237.379 334.914L234.143 194.951C232.062 194.999 230.054 194.64 228.26 193.96L178.598 324.855ZM237.379 334.914L377.342 331.678L375.766 263.544L235.804 266.78L95.841 270.016L97.4163 338.15L237.379 334.914ZM235.804 266.78L232.568 126.817C239.613 126.654 246.683 127.849 253.4 130.397L203.738 261.293L154.075 392.188C181.223 402.489 210.086 407.412 239.04 406.743L235.804 266.78ZM203.738 261.293L253.4 130.397C260.122 132.948 266.444 136.838 271.938 141.982L176.266 244.191L80.593 346.4C101.931 366.373 126.923 381.887 154.075 392.188L203.738 261.293ZM176.266 244.191L271.938 141.982C277.439 147.13 282.004 153.439 285.238 160.625L157.57 218.078L29.9017 275.531C41.9782 302.366 59.2494 326.422 80.593 346.4L176.266 244.191ZM157.57 218.078L285.238 160.625C288.474 167.816 290.273 175.663 290.459 183.693L150.497 186.929L10.534 190.165C11.2162 219.674 17.8224 248.689 29.9017 275.531L157.57 218.078ZM150.497 186.929L147.261 46.9661L77.7636 48.5729L80.9997 188.536L84.2357 328.498L153.733 326.891L150.497 186.929Z" fill="#45BAED" mask="url(#path-3-inside-2_292_3)"/>
</g>
<defs>
<filter id="filter0_d_292_3" x="0.686523" y="0" width="159.267" height="161.075" filterUnits="userSpaceOnUse" color-interpolation-filters="sRGB">
<feFlood flood-opacity="0" result="BackgroundImageFix"/>
<feColorMatrix in="SourceAlpha" type="matrix" values="0 0 0 0 0 0 0 0 0 0 0 0 0 0 0 0 0 0 127 0" result="hardAlpha"/>
<feOffset dy="4"/>
<feGaussianBlur stdDeviation="2"/>
<feComposite in2="hardAlpha" operator="out"/>
<feColorMatrix type="matrix" values="0 0 0 0 0 0 0 0 0 0 0 0 0 0 0 0 0 0 0.25 0"/>
<feBlend mode="normal" in2="BackgroundImageFix" result="effect1_dropShadow_292_3"/>
<feBlend mode="normal" in="SourceGraphic" in2="effect1_dropShadow_292_3" result="shape"/>
</filter>
<filter id="filter1_d_292_3" x="77" y="186.929" width="164.379" height="156.027" filterUnits="userSpaceOnUse" color-interpolation-filters="sRGB">
<feFlood flood-opacity="0" result="BackgroundImageFix"/>
<feColorMatrix in="SourceAlpha" type="matrix" values="0 0 0 0 0 0 0 0 0 0 0 0 0 0 0 0 0 0 127 0" result="hardAlpha"/>
<feOffset dy="4"/>
<feGaussianBlur stdDeviation="2"/>
<feComposite in2="hardAlpha" operator="out"/>
<feColorMatrix type="matrix" values="0 0 0 0 0 0 0 0 0 0 0 0 0 0 0 0 0 0 0.25 0"/>
<feBlend mode="normal" in2="BackgroundImageFix" result="effect1_dropShadow_292_3"/>
<feBlend mode="normal" in="SourceGraphic" in2="effect1_dropShadow_292_3" result="shape"/>
</filter>
</defs>
</svg>
