<svg width="324" height="235" viewBox="0 0 324 235" fill="none" xmlns="http://www.w3.org/2000/svg">
<g filter="url(#filter0_d_292_4)">
<mask id="path-1-inside-1_292_4" fill="white">
<path d="M193 147.886C212.04 152.913 231.903 154.066 251.455 151.278C271.008 148.491 289.867 141.818 306.956 131.64C324.045 121.462 339.029 107.979 351.053 91.9609C363.077 75.9424 371.904 57.7021 377.032 38.2815L311.139 20.8831C308.341 31.4773 303.526 41.4276 296.967 50.166C290.408 58.9043 282.234 66.2595 272.911 71.8115C263.589 77.3636 253.301 81.0038 242.635 82.5244C231.969 84.045 221.133 83.4161 210.746 80.6737L193 147.886Z"/>
</mask>
<path d="M193 147.886L57.6388 112.145L21.8983 247.506L157.259 283.247L193 147.886ZM377.032 38.2815L512.393 74.022L548.134 -61.3391L412.773 -97.0796L377.032 38.2815ZM311.139 20.8831L346.879 -114.478L211.518 -150.218L175.778 -14.8574L311.139 20.8831ZM210.746 80.6737L246.487 -54.6873L111.126 -90.4278L75.3854 44.9332L210.746 80.6737ZM193 147.886L157.259 283.247C194.451 293.067 233.188 295.298 271.214 289.877L251.455 151.278L231.697 12.6796C230.618 12.8334 229.628 12.759 228.74 12.5247L193 147.886ZM251.455 151.278L271.214 289.877C309.234 284.457 345.709 271.509 378.594 251.924L306.956 131.64L235.319 11.3567C234.026 12.1271 232.783 12.5248 231.697 12.6796L251.455 151.278ZM306.956 131.64L378.594 251.924C411.471 232.343 440.122 206.511 463.02 176.005L351.053 91.9609L239.086 7.91732C237.937 9.44783 236.62 10.5822 235.319 11.3567L306.956 131.64ZM351.053 91.9609L463.02 176.005C485.916 145.502 502.669 110.85 512.393 74.022L377.032 38.2815L241.671 2.54102C241.14 4.55387 240.238 6.38285 239.086 7.91732L351.053 91.9609ZM377.032 38.2815L412.773 -97.0796L346.879 -114.478L311.139 20.8831L275.398 156.244L341.292 173.643L377.032 38.2815ZM311.139 20.8831L175.778 -14.8574C177.577 -21.671 180.687 -28.132 184.999 -33.8777L296.967 50.166L408.934 134.21C426.365 110.987 439.106 84.6256 446.5 56.6235L311.139 20.8831ZM296.967 50.166L184.999 -33.8777C189.315 -39.6273 194.808 -44.6208 201.274 -48.4719L272.911 71.8115L344.549 192.095C369.659 177.14 391.5 157.436 408.934 134.21L296.967 50.166ZM272.911 71.8115L201.274 -48.4719C207.747 -52.3272 215.076 -54.9622 222.876 -56.0743L242.635 82.5244L262.393 221.123C291.527 216.97 319.431 207.054 344.549 192.095L272.911 71.8115ZM242.635 82.5244L222.876 -56.0743C230.684 -57.1873 238.721 -56.7378 246.487 -54.6873L210.746 80.6737L175.006 216.035C203.545 223.57 233.253 225.277 262.393 221.123L242.635 82.5244ZM210.746 80.6737L75.3854 44.9332L57.6388 112.145L193 147.886L328.361 183.626L346.107 116.414L210.746 80.6737Z" fill="#45BAED" mask="url(#path-1-inside-1_292_4)"/>
</g>
<g filter="url(#filter1_d_292_4)">
<mask id="path-3-inside-2_292_4" fill="white">
<path d="M173.522 82.5746C154.016 79.8727 134.158 81.1161 115.082 86.2338C96.0064 91.3516 78.0861 100.243 62.3446 112.402C46.603 124.56 33.3485 139.746 23.3377 157.094C13.3269 174.442 6.75596 193.611 4 213.507L71.5073 222.858C73.0107 212.005 76.5952 201.547 82.0563 192.084C87.5173 182.621 94.7478 174.336 103.335 167.704C111.922 161.071 121.698 156.221 132.104 153.429C142.51 150.637 153.343 149.959 163.984 151.433L173.522 82.5746Z"/>
</mask>
<path d="M173.522 82.5746L312.198 101.784L331.407 -36.8923L192.731 -56.1013L173.522 82.5746ZM4 213.507L-134.676 194.298L-153.885 332.974L-15.209 352.183L4 213.507ZM71.5073 222.858L52.2983 361.534L190.974 380.743L210.183 242.067L71.5073 222.858ZM163.984 151.433L144.775 290.109L283.451 309.318L302.66 170.642L163.984 151.433ZM173.522 82.5746L192.731 -56.1013C154.628 -61.3792 115.904 -58.9375 78.8054 -48.9845L115.082 86.2338L151.359 221.452C152.412 221.17 153.404 221.125 154.313 221.251L173.522 82.5746ZM115.082 86.2338L78.8054 -48.9845C41.713 -39.0332 7.05869 -21.7939 -23.2329 1.60231L62.3446 112.402L147.922 223.201C149.114 222.281 150.3 221.736 151.359 221.452L115.082 86.2338ZM62.3446 112.402L-23.2329 1.60231C-53.518 24.9935 -78.8557 54.0821 -97.9208 87.12L23.3377 157.094L144.596 227.068C145.553 225.411 146.724 224.126 147.922 223.201L62.3446 112.402ZM23.3377 157.094L-97.9208 87.12C-116.983 120.154 -129.45 156.568 -134.676 194.298L4 213.507L142.676 232.716C142.962 230.654 143.637 228.73 144.596 227.068L23.3377 157.094ZM4 213.507L-15.209 352.183L52.2983 361.534L71.5073 222.858L90.7162 84.1823L23.209 74.8314L4 213.507ZM71.5073 222.858L210.183 242.067C209.216 249.048 206.906 255.836 203.315 262.058L82.0563 192.084L-39.2023 122.11C-53.7151 147.259 -63.1949 174.961 -67.1687 203.649L71.5073 222.858ZM82.0563 192.084L203.315 262.058C199.722 268.285 194.869 273.902 188.913 278.503L103.335 167.704L17.7575 56.9043C-5.37333 74.7698 -24.687 96.9564 -39.2023 122.11L82.0563 192.084ZM103.335 167.704L188.913 278.503C182.95 283.108 175.991 286.605 168.381 288.647L132.104 153.429L95.8273 18.2105C67.4047 25.8358 40.8949 39.0338 17.7575 56.9043L103.335 167.704ZM132.104 153.429L168.381 288.647C160.764 290.691 152.731 291.211 144.775 290.109L163.984 151.433L183.193 12.7567C153.955 8.70676 124.257 10.5834 95.8273 18.2105L132.104 153.429ZM163.984 151.433L302.66 170.642L312.198 101.784L173.522 82.5746L34.8458 63.3656L25.3078 132.224L163.984 151.433Z" fill="#45BAED" mask="url(#path-3-inside-2_292_4)"/>
</g>
<defs>
<filter id="filter0_d_292_4" x="189" y="20.8831" width="192.032" height="139.877" filterUnits="userSpaceOnUse" color-interpolation-filters="sRGB">
<feFlood flood-opacity="0" result="BackgroundImageFix"/>
<feColorMatrix in="SourceAlpha" type="matrix" values="0 0 0 0 0 0 0 0 0 0 0 0 0 0 0 0 0 0 127 0" result="hardAlpha"/>
<feOffset dy="4"/>
<feGaussianBlur stdDeviation="2"/>
<feComposite in2="hardAlpha" operator="out"/>
<feColorMatrix type="matrix" values="0 0 0 0 0 0 0 0 0 0 0 0 0 0 0 0 0 0 0.25 0"/>
<feBlend mode="normal" in2="BackgroundImageFix" result="effect1_dropShadow_292_4"/>
<feBlend mode="normal" in="SourceGraphic" in2="effect1_dropShadow_292_4" result="shape"/>
</filter>
<filter id="filter1_d_292_4" x="0" y="81.1841" width="177.521" height="149.674" filterUnits="userSpaceOnUse" color-interpolation-filters="sRGB">
<feFlood flood-opacity="0" result="BackgroundImageFix"/>
<feColorMatrix in="SourceAlpha" type="matrix" values="0 0 0 0 0 0 0 0 0 0 0 0 0 0 0 0 0 0 127 0" result="hardAlpha"/>
<feOffset dy="4"/>
<feGaussianBlur stdDeviation="2"/>
<feComposite in2="hardAlpha" operator="out"/>
<feColorMatrix type="matrix" values="0 0 0 0 0 0 0 0 0 0 0 0 0 0 0 0 0 0 0.25 0"/>
<feBlend mode="normal" in2="BackgroundImageFix" result="effect1_dropShadow_292_4"/>
<feBlend mode="normal" in="SourceGraphic" in2="effect1_dropShadow_292_4" result="shape"/>
</filter>
</defs>
</svg>
